<svg width="65" height="65" viewBox="0 0 65 65" fill="none" xmlns="http://www.w3.org/2000/svg">
<path fill-rule="evenodd" clip-rule="evenodd" d="M47.3555 19.0137C43.4895 19.0137 40.3555 15.8797 40.3555 12.0137C40.3555 8.14768 43.4895 5.01367 47.3555 5.01367C51.2215 5.01367 54.3555 8.14768 54.3555 12.0137C54.3555 15.8797 51.2215 19.0137 47.3555 19.0137ZM17.3555 19.0137C13.4895 19.0137 10.3555 15.8797 10.3555 12.0137C10.3555 8.14768 13.4895 5.01367 17.3555 5.01367C21.2215 5.01367 24.3555 8.14768 24.3555 12.0137C24.3555 15.8797 21.2215 19.0137 17.3555 19.0137ZM32.3555 35.0141C27.937 35.0141 24.3551 31.4322 24.3551 27.0137C24.3551 22.5952 27.937 19.0133 32.3555 19.0133C36.774 19.0133 40.3559 22.5952 40.3559 27.0137C40.3559 31.4322 36.774 35.0141 32.3555 35.0141ZM48.3571 51.0124C48.3571 44.3844 42.9833 39.0124 36.3559 39.0124H28.3565C21.7291 39.0124 16.3552 44.3844 16.3552 51.0124V53.0124C16.3552 54.603 16.9885 56.1297 18.1128 57.255C19.2392 58.3803 20.7642 59.0123 22.3559 59.0123H42.3565C43.9482 59.0123 45.4731 58.3803 46.5996 57.255C47.7239 56.1297 48.3571 54.603 48.3571 53.0124V51.0124ZM14.4965 43.0137H9.35547C7.76447 43.0137 6.23847 42.3817 5.11247 41.2567C3.98747 40.1307 3.35547 38.6047 3.35547 37.0137V35.0137C3.35547 31.8307 4.61947 28.7787 6.87047 26.5287C9.12047 24.2777 12.1725 23.0137 15.3555 23.0137H19.3555C19.9085 23.0137 20.4585 23.0517 21.0005 23.1267C20.5825 24.3457 20.3555 25.6537 20.3555 27.0137C20.3555 30.3857 21.7495 33.4357 23.9925 35.6157C19.9485 36.7597 16.5555 39.4527 14.4965 43.0137ZM43.7105 23.1267C44.2525 23.0517 44.8025 23.0137 45.3555 23.0137H49.3555C52.5385 23.0137 55.5905 24.2777 57.8405 26.5287C60.0915 28.7787 61.3555 31.8307 61.3555 35.0137V37.0137C61.3555 38.6047 60.7235 40.1307 59.5985 41.2567C58.4725 42.3817 56.9465 43.0137 55.3555 43.0137H50.2145C48.1555 39.4527 44.7625 36.7597 40.7185 35.6157C42.9615 33.4357 44.3555 30.3857 44.3555 27.0137C44.3555 25.6537 44.1285 24.3457 43.7105 23.1267Z" fill="white"/>
</svg>
