<svg width="29" height="16" viewBox="0 0 29 16" fill="none" xmlns="http://www.w3.org/2000/svg">
<path d="M8.55513 0.254883C12.8035 0.254883 16.2472 3.72263 16.2472 8.00001C16.2472 12.2774 12.8032 15.7449 8.55513 15.7449C4.30702 15.7449 0.862793 12.2774 0.862793 8.00001C0.862793 3.72263 4.30676 0.254883 8.55513 0.254883ZM20.8392 0.708572C22.9634 0.708572 24.6854 3.97273 24.6854 8.00001H24.6857C24.6857 12.0262 22.9637 15.2915 20.8395 15.2915C18.7153 15.2915 16.9933 12.0262 16.9933 8.00001C16.9933 3.97378 18.7151 0.708572 20.8392 0.708572ZM26.7845 1.46803C27.5314 1.46803 28.1372 4.39245 28.1372 8.00001C28.1372 11.6065 27.5317 14.532 26.7845 14.532C26.0373 14.532 25.4321 11.6073 25.4321 8.00001C25.4321 4.39271 26.0376 1.46803 26.7845 1.46803Z" fill="white"/>
</svg>
