<svg width="80" height="46" viewBox="0 0 80 46" fill="none" xmlns="http://www.w3.org/2000/svg">
<path d="M22.2918 0.574219C34.6011 0.574219 44.5789 10.6217 44.5789 23.0151C44.5789 35.4084 34.6003 45.4552 22.2918 45.4552C9.98325 45.4552 0.00390625 35.4084 0.00390625 23.0151C0.00390625 10.6217 9.98249 0.574219 22.2918 0.574219ZM57.884 1.88875C64.0386 1.88875 69.0279 11.3464 69.0279 23.0151H69.0287C69.0287 34.6807 64.0394 44.1414 57.8847 44.1414C51.7301 44.1414 46.7408 34.6807 46.7408 23.0151C46.7408 11.3494 51.7293 1.88875 57.884 1.88875ZM75.1099 4.08921C77.274 4.08921 79.0292 12.5625 79.0292 23.0151C79.0292 33.4646 77.2747 41.9409 75.1099 41.9409C72.945 41.9409 71.1913 33.4669 71.1913 23.0151C71.1913 12.5632 72.9457 4.08921 75.1099 4.08921Z" fill="white"/>
</svg>
