<svg version="1.2" xmlns="http://www.w3.org/2000/svg" viewBox="0 0 43 41" width="43" height="41">
	<title>Logo-svg</title>
	<style>
		.s0 { fill: #ffffff } 
		.s1 { fill: #15b887 } 
	</style>
	<path id="Layer" fill-rule="evenodd" class="s0" d="m63.6 14.2q-0.9-0.3-1.9-0.3-1.1 0-1.7 0.5-0.6 0.5-0.6 1.5 0 0.9 0.4 1.4 0.5 0.6 1.9 1l2.5 0.7q2 0.6 3.2 1.8 1.1 1.2 1.1 3.6 0 1.9-0.9 3.3-0.9 1.4-2.5 2.1-1.6 0.7-3.7 0.7-1.6 0-3.4-0.4-1.8-0.4-2.9-1.2v-0.6q0-0.4 0-1 0.1-0.6 0.3-1.3 0.2-0.7 0.4-1.2h2.7q0.4 0.9 0.5 2.3 0.9 0.4 2.3 0.4 1.2 0 2.1-0.6 0.8-0.6 0.8-1.7 0-0.6-0.1-0.9 0-0.4-0.5-0.8-0.4-0.4-1.2-0.6l-2.9-0.9q-4.4-1.2-4.4-5.5 0-1.7 0.9-3 0.8-1.2 2.3-1.9 1.5-0.7 3.5-0.7 3 0 5.8 1.4v0.6q0 0.3-0.1 1-0.1 0.6-0.3 1.3-0.1 0.7-0.4 1.2h-2.6q-0.5-0.7-0.6-2.2zm21.2 9.2q0 3.6-1.6 5.4-1.7 1.7-5.4 1.7-2.5 0-3.9-0.7-1.5-0.8-2.1-2.4-0.7-1.6-0.7-4v-9q-1-0.4-1.5-1l0.3-2.3h6.5l0.3 2.3q-0.5 0.6-1.6 1v9.1q0 2 0.7 3 0.6 0.9 2.3 0.9 1.7 0 2.4-1 0.7-1 0.7-2.9v-9.1q-1.1-0.4-1.5-1l0.3-2.3h6.1l0.2 2.3q-0.4 0.6-1.5 1zm17.9-6.6q0 1.9-1.2 3.1-1.1 1.3-2.9 2 1.4 0.6 1.8 1.4l2 3.9q1.4 0.4 1.8 1l-0.3 2.1h-4.7l-3.2-6.8q-0.4-1-1-1h-1.8v4.4q2 0.5 2.5 1.1l-0.2 2.3h-7.6l-0.2-2.3q0.3-0.4 1.5-0.9v-12.7q-1.1-0.4-1.5-0.9l0.2-2.3h7.1q2.6 0 4.3 0.5 1.7 0.5 2.6 1.7 0.8 1.3 0.8 3.4zm-7.9-2.6h-1.6v5.3h1.6q1.9 0 2.8-0.6 0.9-0.6 0.9-2.1 0-1.4-0.9-2-0.9-0.6-2.8-0.6zm17.8-0.1q-1.8 0-2.9 1.4-1 1.5-1 5 0 6.9 3.8 6.9 1.4 0 2.6-0.5v-3.1q-1.3-0.4-1.7-1l0.3-2.2h6.5l0.2 2.2q-0.3 0.4-1.3 0.8v5.2q-1.3 1-2.9 1.4-1.6 0.4-4 0.4-4 0-5.8-2.3-1.9-2.3-1.9-7.4 0-5.1 2.2-7.5 2.2-2.5 6.1-2.5 3.8 0 6.3 1.8v0.6q0 0.3-0.1 1-0.1 0.6-0.3 1.3-0.1 0.7-0.4 1.2h-2.5q-0.5-0.8-0.6-2.3-1.2-0.4-2.6-0.4zm20.3 11.1l2.1 0.3v4.8h-12.9l-0.3-2.3q0.4-0.4 1.5-0.9v-12.7q-1.1-0.4-1.5-0.9l0.3-2.3h12.6v4.8l-2 0.2q-0.7-0.5-1-2h-4.4v4.8h3.9q0.3-0.9 0.7-1.2l1.7 0.2v4.9l-1.7 0.3q-0.4-0.3-0.7-1.2h-3.9v5.3h4.6q0.4-1.5 1-2.1z"/>
	<path id="Layer" class="s1" d="m28.7 3.4q-1.5-0.6-3.6-1.1c-1.5-0.4-3.1-0.4-4.8-0.3q-3.9 0.1-7.4 1.8c-1.4 0.8-2.9 1.6-4.1 2.6q-4.4 3.6-6.2 9-0.3 0.8-0.5 1.1c-0.3 0.5-1.4 1-2 0.5-0.3-0.2 0-0.7 0.1-0.9 1.2-5.7 5.1-10.5 10.2-13.5q4.5-2.6 9.6-2.8c1.2 0 2.8 0 4 0.1 3.2 0.4 6.1 1.5 8.8 3.1 4.3 2.5 7.6 6.5 9.3 11.1q0.1 0.3 0.3 1.1 0.1 0.6-0.5 1-0.8 0.6-1.4 0-0.2-0.2-0.2-0.5c-1.6-5.5-6.2-10.1-11.6-12.3z"/>
	<path id="Layer" fill-rule="evenodd" class="s1" d="m25.2 40.5q-4.7 0.7-9.1-0.3-2.6-0.6-5.1-1.9c-0.5-0.3-1-0.6-1.5-0.9-1.8-1.1-3.5-2.6-4.8-4.2q-1.9-2.2-3-4.6c-1.6-3.5-1.3-7 0.6-10.4 2.6-4.8 7.3-8.2 12.9-9.2q2.8-0.4 5.8 0.2c1.4 0.4 2.8 1 3.9 1.8 2.1 1.5 4 4.2 4.1 6.8 0 1.2-0.1 2.2-0.6 3.3q0 0.1-0.1 0.1 0 0.1-0.1 0.1-0.1-0.1-0.1-0.1-0.1 0-0.1-0.1 0 0 0 0-1-2.6-3.5-3.7-0.9-0.4-1.9-0.4c-1.8 0-3.6 1-4.2 2.7q-0.4 1.2 0.1 2.3 0.4 1.3 1.5 2.2c2 1.5 4.5 1.5 6.9 1.5q0.6 0 1.6-0.2c2-0.3 3.7-0.4 5.9-0.4q2.7 0.1 5.1 1.1 0.2 0.1 0.2-0.1c0.7-1.7 1.1-3.3 1.2-5.1q0-0.6 0.1-0.8c0.4-0.8 1.2-1.3 2-1.1q0.1 0 0.1 0c0.1 2.9-0.3 5.5-1.4 8.1q-0.3 1-0.7 1.8-1.6 2.9-3.9 5.3-4.9 4.9-11.9 6.2zm-11.9-26.8q0.4 0.1 0.1 0.4-1.2 1-2.1 2.2c-0.5 0.7-0.9 1.5-1.1 2.3-0.8 1.8-0.7 3.9-0.1 5.8 0.4 1.4 1.3 2.8 2.4 3.8q1.9 2.1 4.8 2.8 1 0.3 2.2 0.4c0.6 0.1 1.3 0.1 1.9 0.1q0.7 0 1.3-0.1c1.2-0.2 2.2-0.5 3.5-0.9 1.7-0.6 3.8-1.3 5.7-1.6 1.2-0.2 2.6-0.2 3.9-0.2q1.2 0.1 2.3 0.4 0.1 0 0.1 0 0 0 0 0l0.5-0.8q0 0 0-0.1 0 0 0 0 0 0 0 0 0 0 0 0c-1.7-0.5-3.2-0.6-5-0.6q-2.1 0-4.1 0.6-2.4 0.7-4.7 1.4-0.9 0.3-2.3 0.5c-1 0.2-2 0.1-3 0.1q-0.1 0-0.3-0.1c-0.2 0-0.6-0.1-0.8-0.1-2.5-0.6-4.7-2.1-6-4.3-1.8-2.9-1.9-6.6 0.3-9.4q0.7-1 1.6-1.8c2-1.6 4.7-2.3 7.4-2 0.5 0 0.9 0 1.3 0.3q0 0 0 0 0 0 0 0 0 0 0 0 0-0.1 0-0.1-0.2-0.2-0.5-0.4c-1.4-0.6-2.6-0.9-4.2-0.9q-1.3-0.1-2 0c-1.1 0.1-2 0.4-3 0.8-3.8 1.4-6.9 4.5-7.7 8.4-1.1 5.4 1.7 10.7 6.6 13.5q0.8 0.5 1.7 0.8 3.5 1.3 7.2 1.3 0.8 0 1.7-0.2c1.5-0.3 2.7-0.6 4.3-1.1 1-0.4 2.1-0.8 3.2-1.2q2.3-0.7 4.8-0.8 0 0 0.1 0 0 0 0-0.1l1-0.9q0 0-0.1-0.1-1.6 0-2.2 0c-1.8 0.1-3.6 0.8-5.4 1.4q-2 0.7-4 1.2-1.6 0.5-3.7 0.5-5.4 0.2-9.4-2.9c-3.6-2.8-5.6-7.4-4.2-11.8 0.8-2.6 2.9-5.2 5.5-6.4q0.2 0 0.3 0 0.2-0.1 0.2-0.1zm8.9 13.8c-2-0.3-3.8-1.3-5-2.7-1.2-1.4-1.7-3.4-1.2-5.1 0.7-2.6 2.9-4.3 5.7-4.5 1.8-0.2 3.9 0.3 5.1 1.6q0 0 0 0 0.1 0 0.1 0 0 0 0 0 0 0 0 0c-1.2-2.2-3.6-3-6-2.8q-1.4 0.1-2.9 0.9-2.8 1.6-3.5 4.6-0.4 1.5 0.1 3.1c1 3.2 4.1 5.1 7.6 4.9q0 0 0 0 0 0 0 0 0 0 0 0 0 0 0 0z"/>
</svg>