<svg width="182" height="60" viewBox="0 0 182 60" fill="none" xmlns="http://www.w3.org/2000/svg">
<path d="M84.8075 23.4707C83.9632 23.2536 83.0887 23.145 82.1841 23.145C81.2675 23.145 80.5318 23.3682 79.9769 23.8144C79.4101 24.2727 79.1266 24.918 79.1266 25.7502C79.1266 26.5825 79.3377 27.2338 79.7598 27.7042C80.182 28.1625 81.0082 28.5666 82.2384 28.9163L85.5492 29.8752C87.3222 30.3938 88.7334 31.208 89.7827 32.3176C90.8321 33.4152 91.3567 35.0253 91.3567 37.1481C91.3567 38.8246 90.9406 40.272 90.1084 41.4902C89.2762 42.7084 88.1424 43.6491 86.7071 44.3125C85.2839 44.9638 83.6737 45.2895 81.8766 45.2895C80.3931 45.2895 78.8673 45.1025 77.2993 44.7286C75.7314 44.3427 74.4288 43.8059 73.3915 43.1184V42.25C73.3915 41.9726 73.4277 41.5505 73.5 40.9836C73.5845 40.4167 73.6991 39.8257 73.8438 39.2106C74.0006 38.5834 74.1815 38.0527 74.3865 37.6185H77.9145C78.3125 38.4025 78.5477 39.4277 78.62 40.6941C79.4523 41.068 80.4594 41.255 81.6414 41.255C82.7872 41.255 83.728 40.9836 84.4637 40.4408C85.2115 39.8981 85.5854 39.1201 85.5854 38.107C85.5854 37.6245 85.5492 37.2326 85.4769 36.931C85.4045 36.6174 85.1753 36.2857 84.7894 35.936C84.4034 35.5862 83.8546 35.2967 83.143 35.0676L79.3256 33.964C75.4419 32.8664 73.5 30.3938 73.5 26.5463C73.5 25.0507 73.8679 23.7481 74.6037 22.6384C75.3514 21.5288 76.3887 20.6664 77.7155 20.0513C79.0422 19.4362 80.586 19.1286 82.347 19.1286C84.9884 19.1286 87.5635 19.7257 90.0722 20.9197V21.77C90.0722 22.0474 90.03 22.4756 89.9456 23.0546C89.8732 23.6214 89.7586 24.2124 89.6018 24.8276C89.4571 25.4427 89.2762 25.9674 89.0591 26.4016H85.5492C85.1271 25.7985 84.8798 24.8215 84.8075 23.4707ZM113.031 35.737C113.031 38.9694 112.295 41.3696 110.824 42.9375C109.364 44.5055 106.994 45.2895 103.713 45.2895C101.518 45.2895 99.7694 44.9518 98.4668 44.2763C97.1642 43.5888 96.2295 42.5395 95.6626 41.1283C95.0957 39.7172 94.8123 37.92 94.8123 35.737V23.7601C93.8594 23.4104 93.178 22.9943 92.7679 22.5118L93.1297 19.4362H101.814L102.176 22.5118C101.778 22.9822 101.102 23.3983 100.149 23.7601V35.8817C100.149 37.6668 100.439 38.9875 101.018 39.8438C101.597 40.6881 102.64 41.1102 104.148 41.1102C105.655 41.1102 106.717 40.676 107.332 39.8076C107.947 38.9272 108.255 37.6185 108.255 35.8817V23.7601C107.229 23.3983 106.548 22.9822 106.21 22.5118L106.59 19.4362H114.695L115.075 22.5118C114.677 22.9822 113.996 23.3983 113.031 23.7601V35.737ZM136.894 26.9262C136.894 28.6027 136.369 30.0079 135.32 31.1416C134.271 32.2754 132.956 33.1378 131.376 33.7288C132.606 34.2474 133.42 34.8806 133.818 35.6284L136.514 40.7846C137.696 41.1585 138.492 41.6108 138.902 42.1415L138.522 45H132.262L127.993 35.9179C127.619 35.0012 127.167 34.5429 126.636 34.5429H124.23V40.477C126.015 40.8751 127.136 41.3575 127.595 41.9244L127.215 45H117.21L116.848 41.9244C117.174 41.5022 117.855 41.0922 118.893 40.6941V23.7601C117.867 23.3983 117.186 22.9822 116.848 22.5118L117.21 19.4362H126.672C128.976 19.4603 130.881 19.7076 132.389 20.178C133.897 20.6363 135.024 21.4082 135.772 22.4937C136.52 23.5672 136.894 25.0447 136.894 26.9262ZM126.401 23.4707H124.23V30.5084H126.328C128.017 30.5084 129.271 30.2551 130.091 29.7486C130.924 29.242 131.34 28.3314 131.34 27.0167C131.34 25.7141 130.918 24.7974 130.073 24.2667C129.241 23.736 128.017 23.4707 126.401 23.4707ZM150.137 23.3259C148.461 23.3259 147.158 23.9712 146.229 25.2618C145.301 26.5403 144.836 28.7716 144.836 31.9558C144.836 38.0588 146.519 41.1102 149.884 41.1102C151.199 41.1102 152.381 40.8992 153.43 40.477V36.2978C152.284 35.9119 151.506 35.4535 151.096 34.9228L151.476 31.9919H160.142L160.522 34.9228C160.196 35.3208 159.611 35.7008 158.767 36.0626V42.9194C157.585 43.7878 156.282 44.403 154.859 44.7648C153.436 45.1146 151.663 45.2895 149.54 45.2895C146.006 45.2895 143.413 44.2884 141.761 42.2862C140.108 40.272 139.282 36.9974 139.282 32.4623C139.282 27.9273 140.265 24.5743 142.231 22.4033C144.209 20.2202 146.905 19.1286 150.318 19.1286C153.744 19.1286 156.536 19.9126 158.695 21.4806V22.3128C158.695 22.5902 158.652 23.0184 158.568 23.5973C158.496 24.1642 158.387 24.7612 158.242 25.3884C158.098 26.0035 157.917 26.5282 157.7 26.9624H154.28C153.906 26.2387 153.659 25.2135 153.538 23.8868C152.489 23.5129 151.355 23.3259 150.137 23.3259ZM177.148 38.2155L179.898 38.5593V45H162.693L162.331 41.9244C162.657 41.5022 163.338 41.0922 164.376 40.6941V23.7601C163.35 23.3983 162.669 22.9822 162.331 22.5118L162.693 19.4362H179.591V25.8769L176.859 26.2206C176.28 25.7261 175.822 24.8095 175.484 23.4707H169.713V29.839H174.851C175.152 29.1153 175.46 28.5967 175.773 28.2831L178.107 28.5545V35.1399L175.773 35.4475C175.472 35.1942 175.164 34.6756 174.851 33.8916H169.713V40.9655H175.773C176.099 39.6629 176.557 38.7462 177.148 38.2155Z" fill="white"/>
<path d="M38.2265 9.38196C36.9155 8.8461 35.3394 8.3664 33.4982 7.94286C31.435 7.46857 29.2779 7.44486 27.1024 7.51351C23.6194 7.62334 20.3214 8.45959 17.2084 10.0223C15.2954 10.9833 13.3915 12.1204 11.7592 13.4659C7.85665 16.6827 5.10272 20.6485 3.49745 25.3631C3.24152 26.1136 3.02562 26.6041 2.84977 26.8346C2.34312 27.4961 0.989011 28.1676 0.17158 27.5361C-0.227994 27.2265 0.184639 26.6886 0.265598 26.3129C1.90699 18.7804 7.07404 12.3475 13.9099 8.36973C17.843 6.08065 22.099 4.84458 26.678 4.66152C28.2319 4.60036 30.3512 4.62283 31.9926 4.81629C36.2391 5.31679 40.0677 6.71595 43.7043 8.84402C49.4355 12.1965 53.8373 17.6246 56.0899 23.6357C56.2039 23.941 56.3297 24.4274 56.4672 25.0947C56.5935 25.7088 56.3993 26.1893 55.8848 26.5363C55.1397 27.0381 54.5072 27.026 53.9875 26.5001C53.8448 26.3562 53.7333 26.1432 53.6532 25.8611C51.5457 18.4459 45.492 12.3525 38.2265 9.38196Z" fill="white"/>
<path d="M33.6174 58.8273C29.3978 59.5265 25.3233 59.4216 21.3938 58.5125C19.1517 57.9938 16.8916 57.1338 14.6135 55.9326C13.9955 55.6065 13.3473 55.1646 12.7097 54.7843C10.2589 53.3237 8.05272 51.2701 6.23174 49.1423C4.59002 47.2032 3.28268 45.1597 2.30974 43.0117C0.199514 38.3467 0.561081 33.659 3.00132 29.2156C6.51179 22.8244 12.7951 18.1694 20.2986 16.9242C22.7941 16.5095 25.3443 16.609 27.9493 17.2226C29.8334 17.667 31.6544 18.5421 33.1874 19.6149C36.0352 21.6093 38.5149 25.1021 38.6162 28.5848C38.6661 30.2758 38.578 31.6066 37.8878 33.0496C37.8627 33.1023 37.8221 33.1469 37.771 33.178C37.7199 33.209 37.6604 33.2251 37.5999 33.2243C37.5394 33.2235 37.4804 33.2058 37.4302 33.1734C37.38 33.1411 37.3407 33.0954 37.3172 33.042C37.3101 33.0269 37.3036 33.011 37.2974 32.9942C36.4384 30.6909 34.9015 29.0687 32.6865 28.1277C31.8363 27.7659 30.99 27.5762 30.1476 27.5586C27.6969 27.5082 25.3526 28.9021 24.5624 31.1496C24.1996 32.1804 24.214 33.2238 24.6058 34.2797C25.0178 35.3886 25.7063 36.3296 26.6714 37.1027C29.2786 39.189 32.6023 39.218 35.7986 39.1462C36.4104 39.1319 37.123 39.0601 37.9364 38.9309C40.7132 38.4902 42.9707 38.2913 45.8054 38.392C48.1887 38.4768 50.4803 38.9514 52.6804 39.816C52.8075 39.8656 52.8943 39.8286 52.9407 39.7052C53.7822 37.4791 54.3923 35.2807 54.4961 32.9023C54.5198 32.3802 54.5833 32.0054 54.6868 31.7779C55.139 30.7907 56.1803 30.1196 57.3242 30.2972C57.368 30.3039 57.3913 30.3282 57.3939 30.3702C57.5937 34.1853 56.9797 37.6642 55.6387 41.2174C55.3345 42.0233 54.9887 42.7934 54.6013 43.5279C53.226 46.1376 51.5041 48.4808 49.4355 50.5575C45.1055 54.9065 39.8328 57.6631 33.6174 58.8273ZM17.7821 23.2109C18.0924 23.2898 18.1283 23.4321 17.8899 23.6377C16.832 24.5535 15.8963 25.5583 15.0829 26.652C14.4123 27.5523 13.9193 28.6704 13.5314 29.684C12.5927 32.1317 12.6453 34.9194 13.4552 37.4086C14.056 39.2557 15.2485 41.0877 16.6014 42.5181C18.3282 44.3421 20.4625 45.5941 23.0044 46.274C23.9257 46.5199 24.9372 46.6979 26.0389 46.8079C26.8396 46.8872 27.7127 46.8494 28.5502 46.8431C29.1392 46.8398 29.6879 46.7932 30.1963 46.7034C31.8122 46.4188 33.2479 46.0864 34.8993 45.5387C37.1765 44.782 39.9231 43.7684 42.5066 43.3529C44.1514 43.0885 46.0145 43.1124 47.7539 43.1716C48.8145 43.2077 49.8352 43.3932 50.816 43.7281C50.8437 43.7373 50.8738 43.7369 50.901 43.727C50.9282 43.7171 50.9507 43.6983 50.9646 43.6739L51.5891 42.5848C51.595 42.5747 51.5984 42.5636 51.5992 42.5521C51.6 42.5406 51.5981 42.5291 51.5937 42.5184C51.5893 42.5077 51.5825 42.498 51.5737 42.4902C51.565 42.4823 51.5545 42.4763 51.5431 42.4728C49.3685 41.7891 47.2687 41.6417 44.9587 41.6631C43.0268 41.6816 41.1975 41.9481 39.4708 42.4627C37.3689 43.0897 35.2657 43.7126 33.1611 44.3312C32.3495 44.5696 31.3345 44.792 30.1161 44.9985C28.8026 45.2201 27.4681 45.1496 26.1376 45.1068C26.0122 45.1026 25.8755 45.0829 25.7273 45.0476C25.3908 44.9658 24.9648 44.9167 24.7071 44.8562C21.3162 44.063 18.4395 42.0912 16.7014 39.2016C14.3229 35.2455 14.173 30.3576 16.9985 26.5778C17.6305 25.7316 18.3619 24.9636 19.1929 24.2736C21.8829 22.0399 25.4894 21.1107 29.0012 21.5098C29.7716 21.598 30.2042 21.6169 30.738 21.9178C30.743 21.9202 30.7486 21.9209 30.7541 21.9199C30.7596 21.9188 30.7645 21.916 30.7681 21.912C30.7718 21.9079 30.7739 21.9028 30.7741 21.8975C30.7744 21.8922 30.7728 21.8869 30.7695 21.8825C30.5679 21.6509 30.3379 21.4721 30.0793 21.3462C28.2741 20.4686 26.6411 20.1324 24.5177 20.0568C23.3327 20.014 22.4443 20.0245 21.8527 20.0883C20.4511 20.2407 19.1666 20.6574 17.8452 21.1523C12.8162 23.0346 8.61939 27.1733 7.5623 32.3608C6.08448 39.6108 9.85134 46.6266 16.3424 50.3724C17.0691 50.7921 17.8549 51.1589 18.6998 51.4729C21.7501 52.6069 24.9196 53.158 28.2083 53.1261C28.9464 53.1194 29.723 53.0413 30.5381 52.8919C32.5682 52.5217 34.0591 52.0634 36.2403 51.3507C37.5354 50.9277 39.0711 50.2868 40.4569 49.8574C42.5605 49.2052 44.7102 48.8405 46.9059 48.7633C46.9421 48.7621 46.9778 48.7539 47.011 48.7392C47.0442 48.7245 47.0741 48.7036 47.0991 48.6776L48.3179 47.4072C48.353 47.3703 48.3442 47.3514 48.2917 47.3505C46.855 47.3161 45.854 47.3149 45.2887 47.3468C42.8813 47.484 40.4569 48.3377 38.1165 49.1423C36.353 49.7491 34.571 50.3032 32.7706 50.8043C31.3796 51.1912 29.7458 51.4086 27.8691 51.4565C23.0763 51.5799 18.9146 50.296 15.3839 47.6049C10.4864 43.8716 7.92913 37.7171 9.70277 31.8597C10.7638 28.3607 13.634 24.8906 17.0919 23.3431C17.2093 23.2911 17.3206 23.2541 17.4258 23.2323C17.5923 23.1996 17.7111 23.1924 17.7821 23.2109ZM29.5389 41.5246C26.9277 41.1406 24.5874 39.8828 22.9308 37.9034C21.378 36.0475 20.6444 33.4374 21.2992 31.103C22.255 27.6971 25.2225 25.3816 28.8855 25.1021C31.306 24.917 34.0696 25.5856 35.7644 27.2992C35.7677 27.3036 35.7727 27.3065 35.7782 27.3073C35.7838 27.3081 35.7894 27.3068 35.794 27.3036C35.7985 27.3005 35.8015 27.2957 35.8024 27.2904C35.8033 27.2851 35.8019 27.2796 35.7986 27.2753C34.2024 24.3013 31.0995 23.3406 27.8034 23.6012C26.5622 23.7003 25.3114 24.1007 24.051 24.8024C21.4959 26.2261 19.9094 28.2725 19.2915 30.9418C18.9847 32.2706 19.0404 33.6137 19.4585 34.971C20.789 39.2885 24.8767 41.8734 29.535 41.6191C29.5468 41.6177 29.5577 41.6124 29.5658 41.6041C29.5738 41.5957 29.5785 41.5849 29.579 41.5735C29.5795 41.5621 29.5757 41.5509 29.5684 41.542C29.561 41.533 29.5506 41.5269 29.5389 41.5246Z" fill="white"/>
</svg>
