<svg width="137" height="45" viewBox="0 0 137 45" fill="none" xmlns="http://www.w3.org/2000/svg">
<path d="M63.6315 18.1687C62.9981 18.0058 62.342 17.9243 61.6632 17.9243C60.9755 17.9243 60.4234 18.0918 60.0072 18.4266C59.5818 18.7705 59.3692 19.2546 59.3692 19.8791C59.3692 20.5035 59.5275 20.9922 59.8443 21.3451C60.161 21.689 60.7809 21.9922 61.704 22.2546L64.1881 22.974C65.5184 23.3632 66.5772 23.974 67.3645 24.8066C68.1518 25.6301 68.5455 26.8382 68.5455 28.431C68.5455 29.6889 68.2333 30.7748 67.6088 31.6888C66.9844 32.6028 66.1338 33.3087 65.0569 33.8064C63.989 34.2951 62.7809 34.5395 61.4325 34.5395C60.3194 34.5395 59.1746 34.3992 57.9981 34.1186C56.8217 33.8291 55.8443 33.4264 55.0661 32.9105V32.259C55.0661 32.0508 55.0932 31.7341 55.1475 31.3087C55.2109 30.8834 55.2968 30.44 55.4054 29.9784C55.5231 29.5079 55.6588 29.1097 55.8127 28.7839H58.4597C58.7583 29.3721 58.9348 30.1413 58.9891 31.0915C59.6135 31.3721 60.3691 31.5124 61.256 31.5124C62.1157 31.5124 62.8216 31.3087 63.3736 30.9015C63.9347 30.4943 64.2152 29.9106 64.2152 29.1504C64.2152 28.7884 64.1881 28.4943 64.1338 28.2681C64.0795 28.0328 63.9075 27.7839 63.618 27.5215C63.3284 27.259 62.9166 27.0418 62.3827 26.8699L59.5185 26.0419C56.6045 25.2183 55.1475 23.3632 55.1475 20.4763C55.1475 19.3542 55.4235 18.3768 55.9756 17.5443C56.5366 16.7117 57.3149 16.0646 58.3104 15.6031C59.3058 15.1416 60.4642 14.9108 61.7854 14.9108C63.7673 14.9108 65.6994 15.3588 67.5817 16.2547V16.8927C67.5817 17.1008 67.55 17.4221 67.4867 17.8565C67.4324 18.2818 67.3464 18.7252 67.2288 19.1868C67.1202 19.6483 66.9844 20.042 66.8215 20.3677H64.1881C63.8714 19.9153 63.6858 19.1822 63.6315 18.1687ZM84.8077 27.3722C84.8077 29.7975 84.2556 31.5983 83.1516 32.7748C82.0566 33.9512 80.2783 34.5395 77.8168 34.5395C76.1698 34.5395 74.8576 34.2861 73.8802 33.7793C72.9029 33.2635 72.2015 32.4761 71.7762 31.4173C71.3509 30.3585 71.1382 29.0101 71.1382 27.3722V18.3859C70.4233 18.1234 69.912 17.8112 69.6043 17.4492L69.8758 15.1416H76.3915L76.663 17.4492C76.3644 17.8022 75.8576 18.1144 75.1427 18.3859V27.4807C75.1427 28.8201 75.3598 29.811 75.7942 30.4536C76.2286 31.087 77.0114 31.4038 78.1426 31.4038C79.2738 31.4038 80.0702 31.078 80.5317 30.4264C80.9932 29.7658 81.224 28.7839 81.224 27.4807V18.3859C80.4548 18.1144 79.9435 17.8022 79.6901 17.4492L79.9752 15.1416H86.0565L86.3416 17.4492C86.0429 17.8022 85.5316 18.1144 84.8077 18.3859V27.3722ZM102.712 20.7614C102.712 22.0193 102.319 23.0736 101.531 23.9242C100.744 24.7749 99.7576 25.422 98.5721 25.8654C99.4952 26.2545 100.106 26.7296 100.405 27.2907L102.427 31.1594C103.314 31.44 103.911 31.7793 104.219 32.1775L103.934 34.3223H99.2373L96.0337 27.5079C95.7532 26.8201 95.4138 26.4762 95.0156 26.4762H93.2102V30.9287C94.5496 31.2273 95.3912 31.5893 95.7351 32.0146L95.45 34.3223H87.9434L87.6719 32.0146C87.9162 31.6979 88.4275 31.3902 89.2058 31.0915V18.3859C88.4366 18.1144 87.9253 17.8022 87.6719 17.4492L87.9434 15.1416H95.0428C96.7713 15.1597 98.2011 15.3452 99.3323 15.6981C100.464 16.042 101.31 16.6212 101.871 17.4357C102.432 18.2411 102.712 19.3497 102.712 20.7614ZM94.8392 18.1687H93.2102V23.4491H94.7849C96.0518 23.4491 96.993 23.2591 97.6083 22.879C98.2328 22.4989 98.545 21.8157 98.545 20.8293C98.545 19.8519 98.2282 19.1641 97.5948 18.766C96.9704 18.3678 96.0518 18.1687 94.8392 18.1687ZM112.649 18.0601C111.391 18.0601 110.414 18.5442 109.717 19.5126C109.02 20.4718 108.672 22.146 108.672 24.5351C108.672 29.1142 109.934 31.4038 112.459 31.4038C113.445 31.4038 114.332 31.2454 115.119 30.9287V27.793C114.26 27.5034 113.676 27.1595 113.368 26.7613L113.653 24.5622H120.155L120.441 26.7613C120.196 27.0599 119.757 27.345 119.124 27.6165V32.7612C118.237 33.4128 117.26 33.8743 116.192 34.1458C115.124 34.4082 113.794 34.5395 112.201 34.5395C109.549 34.5395 107.604 33.7883 106.364 32.2861C105.124 30.7748 104.504 28.3178 104.504 24.9152C104.504 21.5125 105.242 18.9967 106.717 17.3678C108.201 15.7298 110.224 14.9108 112.785 14.9108C115.355 14.9108 117.45 15.499 119.07 16.6755V17.2999C119.07 17.5081 119.038 17.8293 118.975 18.2637C118.92 18.689 118.839 19.137 118.73 19.6076C118.622 20.0691 118.486 20.4628 118.323 20.7886H115.757C115.477 20.2456 115.291 19.4764 115.201 18.4809C114.413 18.2004 113.563 18.0601 112.649 18.0601ZM132.915 29.2319L134.979 29.4898V34.3223H122.069L121.798 32.0146C122.042 31.6979 122.554 31.3902 123.332 31.0915V18.3859C122.563 18.1144 122.051 17.8022 121.798 17.4492L122.069 15.1416H134.748V19.9741L132.698 20.232C132.264 19.861 131.92 19.1732 131.667 18.1687H127.336V22.9469H131.192C131.418 22.4039 131.649 22.0148 131.884 21.7795L133.635 21.9831V26.9242L131.884 27.155C131.658 26.9649 131.427 26.5758 131.192 25.9876H127.336V31.2952H131.884C132.128 30.3178 132.472 29.63 132.915 29.2319Z" fill="white"/>
<path d="M28.6816 7.36178C27.6979 6.95971 26.5153 6.59979 25.1339 6.28201C23.5859 5.92615 21.9674 5.90836 20.3351 5.95986C17.7218 6.04227 15.2473 6.66972 12.9115 7.84219C11.4762 8.56328 10.0477 9.41642 8.82303 10.4259C5.89489 12.8396 3.8286 15.8151 2.62416 19.3525C2.43213 19.9156 2.27014 20.2837 2.1382 20.4566C1.75806 20.9529 0.742061 21.4568 0.128738 20.9829C-0.171066 20.7507 0.138535 20.347 0.19928 20.0652C1.43082 14.4135 5.30769 9.58686 10.4367 6.60229C13.3877 4.88478 16.581 3.95735 20.0167 3.82C21.1826 3.77411 22.7727 3.79097 24.0043 3.93613C27.1904 4.31165 30.063 5.36145 32.7916 6.95815C37.0917 9.47354 40.3945 13.5463 42.0845 18.0564C42.1701 18.2855 42.2645 18.6504 42.3677 19.1512C42.4624 19.6119 42.3167 19.9724 41.9307 20.2328C41.3716 20.6093 40.8971 20.6002 40.5072 20.2056C40.4 20.0976 40.3164 19.9378 40.2563 19.7261C38.675 14.1625 34.1329 9.5906 28.6816 7.36178Z" fill="#15B887"/>
<path d="M25.2233 44.4609C22.0573 44.9855 19.0002 44.9068 16.0519 44.2247C14.3696 43.8355 12.6738 43.1902 10.9646 42.289C10.5009 42.0443 10.0146 41.7127 9.53612 41.4274C7.6973 40.3315 6.04198 38.7907 4.67569 37.1941C3.44389 35.7393 2.46299 34.206 1.73299 32.5943C0.149673 29.0941 0.420958 25.577 2.25188 22.243C4.88581 17.4477 9.60024 13.955 15.2301 13.0207C17.1025 12.7096 19.016 12.7842 20.9705 13.2446C22.3842 13.5781 23.7504 14.2347 24.9007 15.0396C27.0374 16.536 28.8979 19.1567 28.9739 21.7697C29.0114 23.0385 28.9453 24.0371 28.4274 25.1197C28.4086 25.1593 28.3781 25.1928 28.3398 25.216C28.3014 25.2393 28.2568 25.2514 28.2114 25.2508C28.166 25.2502 28.1217 25.2369 28.0841 25.2126C28.0464 25.1884 28.0169 25.1541 27.9993 25.114C27.994 25.1027 27.9891 25.0907 27.9845 25.0781C27.34 23.3499 26.1867 22.1328 24.5248 21.4268C23.8869 21.1554 23.2519 21.013 22.6199 20.9998C20.7811 20.962 19.0222 22.0078 18.4293 23.6941C18.157 24.4675 18.1679 25.2504 18.4619 26.0427C18.771 26.8747 19.2876 27.5807 20.0117 28.1608C21.9679 29.7261 24.4617 29.7479 26.8599 29.694C27.3189 29.6833 27.8536 29.6295 28.4639 29.5325C30.5474 29.2018 32.2412 29.0526 34.368 29.1281C36.1562 29.1918 37.8757 29.5479 39.5264 30.1966C39.6217 30.2338 39.6869 30.2061 39.7217 30.1135C40.3531 28.4432 40.8108 26.7937 40.8887 25.0092C40.9065 24.6174 40.9542 24.3362 41.0318 24.1655C41.3711 23.4249 42.1524 22.9214 43.0107 23.0546C43.0435 23.0596 43.061 23.0779 43.063 23.1094C43.2129 25.9718 42.7522 28.5821 41.746 31.2481C41.5178 31.8527 41.2583 32.4306 40.9677 32.9816C39.9358 34.9397 38.6438 36.6978 37.0917 38.256C33.8429 41.5191 29.8867 43.5873 25.2233 44.4609ZM13.342 17.7377C13.5748 17.7969 13.6018 17.9036 13.4229 18.058C12.6291 18.7451 11.927 19.499 11.3167 20.3196C10.8136 20.9951 10.4437 21.834 10.1527 22.5945C9.44832 24.431 9.48778 26.5226 10.0955 28.3903C10.5463 29.7762 11.441 31.1508 12.4561 32.224C13.7517 33.5926 15.3531 34.5319 17.2603 35.0421C17.9515 35.2266 18.7105 35.3601 19.5371 35.4426C20.1379 35.5021 20.793 35.4738 21.4213 35.4691C21.8633 35.4666 22.275 35.4316 22.6564 35.3642C23.8688 35.1507 24.9461 34.9013 26.1851 34.4904C27.8937 33.9226 29.9545 33.1621 31.8929 32.8503C33.127 32.6519 34.5249 32.6699 35.83 32.7143C36.6258 32.7414 37.3916 32.8806 38.1275 33.1319C38.1483 33.1388 38.1709 33.1385 38.1913 33.131C38.2117 33.1236 38.2286 33.1095 38.239 33.0912L38.7076 32.274C38.712 32.2665 38.7145 32.2581 38.7151 32.2495C38.7157 32.2409 38.7143 32.2323 38.711 32.2242C38.7077 32.2162 38.7026 32.2089 38.696 32.203C38.6895 32.1971 38.6816 32.1926 38.6731 32.19C37.0414 31.677 35.466 31.5665 33.7327 31.5825C32.2833 31.5964 30.9107 31.7963 29.6151 32.1824C28.0381 32.6529 26.46 33.1202 24.881 33.5844C24.272 33.7632 23.5104 33.9301 22.5963 34.0851C21.6107 34.2513 20.6095 34.1984 19.6111 34.1663C19.5171 34.1632 19.4145 34.1484 19.3034 34.1219C19.0508 34.0605 18.7312 34.0237 18.5378 33.9783C15.9937 33.3831 13.8352 31.9037 12.5311 29.7356C10.7465 26.7673 10.6341 23.0999 12.754 20.2639C13.2282 19.629 13.777 19.0527 14.4005 18.535C16.4189 16.8591 19.1248 16.1619 21.7597 16.4614C22.3378 16.5275 22.6623 16.5417 23.0629 16.7675C23.0666 16.7693 23.0709 16.7698 23.075 16.769C23.0791 16.7682 23.0828 16.7661 23.0855 16.7631C23.0882 16.7601 23.0898 16.7562 23.09 16.7522C23.0902 16.7482 23.089 16.7443 23.0865 16.741C22.9353 16.5672 22.7626 16.433 22.5686 16.3386C21.2142 15.6801 19.989 15.4279 18.3958 15.3712C17.5066 15.3391 16.8401 15.3469 16.3962 15.3948C15.3446 15.5091 14.3808 15.8218 13.3893 16.1931C9.61602 17.6054 6.46715 20.7107 5.67401 24.6029C4.5652 30.0426 7.39149 35.3066 12.2618 38.1171C12.807 38.432 13.3966 38.7073 14.0306 38.9428C16.3192 39.7937 18.6973 40.2071 21.1649 40.1832C21.7186 40.1782 22.3013 40.1196 22.9129 40.0075C24.4361 39.7298 25.5547 39.3859 27.1913 38.8512C28.163 38.5337 29.3152 38.0529 30.355 37.7307C31.9334 37.2414 33.5463 36.9677 35.1937 36.9098C35.2209 36.9089 35.2477 36.9027 35.2726 36.8917C35.2975 36.8807 35.32 36.865 35.3387 36.8455L36.2532 35.8923C36.2795 35.8646 36.2729 35.8504 36.2335 35.8498C35.1556 35.824 34.4045 35.823 33.9803 35.847C32.1741 35.9499 30.355 36.5905 28.599 37.1941C27.2758 37.6495 25.9388 38.0652 24.588 38.4412C23.5443 38.7315 22.3184 38.8946 20.9103 38.9305C17.3143 39.0231 14.1917 38.0598 11.5426 36.0406C7.86797 33.2395 5.94924 28.6218 7.28002 24.227C8.07612 21.6016 10.2296 18.9979 12.8241 17.8369C12.9122 17.7978 12.9957 17.7701 13.0747 17.7538C13.1996 17.7292 13.2887 17.7238 13.342 17.7377ZM22.1632 31.4786C20.204 31.1905 18.4481 30.2467 17.2051 28.7616C16.04 27.3691 15.4896 25.4107 15.9809 23.6592C16.698 21.1037 18.9245 19.3664 21.6729 19.1567C23.489 19.0178 25.5626 19.5194 26.8342 20.8052C26.8367 20.8084 26.8404 20.8106 26.8446 20.8112C26.8488 20.8119 26.853 20.8109 26.8564 20.8085C26.8598 20.8061 26.8621 20.8025 26.8627 20.7985C26.8634 20.7946 26.8623 20.7905 26.8599 20.7872C25.6623 18.5558 23.3341 17.835 20.861 18.0306C19.9298 18.1049 18.9913 18.4053 18.0456 18.9318C16.1285 20 14.9381 21.5355 14.4745 23.5383C14.2443 24.5352 14.2861 25.5429 14.5998 26.5613C15.5981 29.8008 18.6651 31.7403 22.1602 31.5495C22.1691 31.5485 22.1773 31.5445 22.1833 31.5382C22.1894 31.5319 22.1929 31.5238 22.1933 31.5152C22.1936 31.5067 22.1908 31.4983 22.1853 31.4916C22.1798 31.4849 22.1719 31.4803 22.1632 31.4786Z" fill="#15B887"/>
</svg>
